# This file uses centimeters as units for non-parametric coordinates.

mtllib CurvedPath2_Low.mtl
g default
v 13.259781 0.000000 5.917686
v 5.256409 0.000000 5.163382
v -2.758484 0.000000 4.989786
v -10.763626 0.000000 5.397303
v 13.131912 0.000000 -1.531668
v 5.125580 0.000000 -2.286253
v -2.892273 0.000000 -2.459921
v -10.900406 0.000000 -2.052252
v -11.028305 0.000000 -9.502563
v -3.023132 0.000000 -9.910126
v 4.991760 0.000000 -9.736534
v 12.995117 0.000000 -8.982178
v 13.259781 -1.676471 5.917686
v 5.256409 -1.676471 5.163382
v -2.758484 -1.676471 4.989786
v -10.763626 -1.676471 5.397303
v -11.028305 -1.676471 -9.502563
v -3.023132 -1.676471 -9.910126
v 4.991760 -1.676471 -9.736534
v 12.995117 -1.676471 -8.982178
v -29.979324 0.000000 6.360720
v -29.967789 0.000000 -0.961359
v -29.970657 0.000000 -8.507118
v -29.979324 -1.676471 6.360720
v -29.970886 -1.676471 -8.507114
v 31.030518 0.000000 7.473047
v 31.030487 0.000000 0.027916
v 31.030518 0.000000 -7.352962
v 31.030518 -1.676471 7.473047
v 31.030518 -1.676471 -7.352962
v 21.360611 0.000000 -0.447351
v 24.974915 0.000000 -0.091019
v 28.604767 0.000000 0.027914
v 21.364807 0.000000 6.994465
v 24.975052 0.000000 7.353271
v 28.601089 0.000000 7.473046
v 21.365768 0.000000 -7.843048
v 24.975433 0.000000 -7.475624
v 28.601654 0.000000 -7.352962
v -20.169632 0.000000 -1.267485
v -23.788681 0.000000 -1.037935
v -27.414230 0.000000 -0.961355
v -20.182373 0.000000 6.093527
v -23.799484 0.000000 6.293898
v -27.421600 0.000000 6.360715
v -20.171860 0.000000 -8.789253
v -23.791138 0.000000 -8.577686
v -27.415894 0.000000 -8.507118
v 28.597122 -1.676471 7.473046
v 24.975037 -1.676471 7.353402
v 21.368744 -1.676471 6.994989
v 21.369904 -1.676471 -7.842491
v 24.975418 -1.676471 -7.475487
v 28.597488 -1.676471 -7.352970
v -20.182373 -1.676471 6.093527
v -23.799484 -1.676471 6.293898
v -27.421600 -1.676471 6.360715
v -27.413437 -1.676471 -8.507118
v -23.791367 -1.676471 -8.577621
v -20.174774 -1.676471 -8.789032
v 31.030487 -1.663583 0.030107
v -29.967789 -1.680506 -0.971235
vt 0.392431 0.568612
vt 0.502126 0.574512
vt 0.500333 0.682328
vt 0.390679 0.676430
vt 0.611954 0.571998
vt 0.610121 0.679816
vt 0.486288 0.709304
vt 0.370739 0.709304
vt 0.370739 0.685544
vt 0.486288 0.685544
vt 0.717502 0.709304
vt 0.601978 0.709304
vt 0.601978 0.685544
vt 0.717502 0.685544
vt 0.597021 0.735315
vt 0.721624 0.561078
vt 0.719750 0.668899
vt 0.712455 0.735315
vt 0.712455 0.711574
vt 0.597021 0.711574
vt 0.365961 0.735315
vt 0.481421 0.735315
vt 0.481421 0.711574
vt 0.365961 0.711574
vt 0.938944 0.709304
vt 0.886605 0.709304
vt 0.394305 0.460805
vt 0.503958 0.466702
vt 0.613746 0.464190
vt 0.723375 0.453274
vt 0.834397 0.437691
vt 0.834340 0.545386
vt 0.834411 0.652414
vt 0.265431 0.666107
vt 0.886605 0.685544
vt 0.938887 0.685544
vt 0.834493 0.709304
vt 0.834550 0.685544
vt 0.129600 0.735315
vt 0.181881 0.735315
vt 0.181877 0.711574
vt 0.129636 0.711574
vt 0.265462 0.557255
vt 0.265287 0.450729
vt 0.166125 0.446862
vt 0.166226 0.552825
vt 0.131135 0.552646
vt 0.131052 0.446577
vt 0.234082 0.735315
vt 0.234040 0.711574
vt 0.833186 0.735315
vt 0.833246 0.711574
vt 0.234785 0.709304
vt 0.234785 0.685544
vt 0.166203 0.662024
vt 0.131121 0.661955
vt 0.933570 0.538508
vt 0.933520 0.430765
vt 0.967165 0.430569
vt 0.967161 0.538420
vt 0.130291 0.685544
vt 0.130291 0.709304
vt 0.093372 0.709304
vt 0.093372 0.685544
vt 0.092749 0.711574
vt 0.092752 0.735315
vt 0.933527 0.645322
vt 0.967158 0.645341
vt 0.883848 0.540230
vt 0.974012 0.685544
vt 0.974012 0.709304
vt 0.883855 0.647097
vt 0.937490 0.711574
vt 0.937550 0.735315
vt 0.883850 0.432498
vt 0.215888 0.553933
vt 0.215740 0.447829
vt 0.215855 0.663046
vt 0.972582 0.735315
vt 0.972582 0.711574
vt 0.885249 0.735315
vt 0.885248 0.711574
vt 0.182574 0.709304
vt 0.182574 0.685544
vt 0.989480 0.430375
vt 0.989304 0.538302
vt 0.989465 0.645361
vt 0.109023 0.552612
vt 0.109066 0.446294
vt 0.109086 0.661887
vn -0.000000 1.000000 -0.000000
vn -0.000000 1.000000 -0.000000
vn -0.000000 1.000000 -0.000000
vn -0.000000 1.000000 -0.000000
vn -0.000000 1.000000 -0.000000
vn -0.000000 1.000000 -0.000000
vn -0.000000 1.000000 -0.000000
vn -0.000000 1.000000 -0.000000
vn 0.014600 0.000000 0.999893
vn 0.063220 0.000000 0.998000
vn 0.063220 0.000000 0.998000
vn 0.014600 0.000000 0.999893
vn -0.112948 0.000000 0.993601
vn -0.057831 0.000000 0.998326
vn -0.057831 0.000000 0.998326
vn -0.112948 0.000000 0.993601
vn 0.000000 1.000000 -0.000000
vn -0.000000 1.000000 -0.000000
vn -0.000000 1.000000 -0.000000
vn -0.000000 1.000000 -0.000000
vn 0.057834 0.000000 -0.998326
vn 0.114877 0.000001 -0.993380
vn 0.114877 0.000001 -0.993380
vn 0.057834 0.000000 -0.998326
vn -0.065224 0.000001 -0.997871
vn -0.014603 0.000000 -0.999893
vn -0.014603 0.000000 -0.999893
vn -0.065224 0.000001 -0.997871
vn -0.019741 0.000047 0.999805
vn -0.065992 0.000079 0.997820
vn -0.065992 0.000079 0.997820
vn -0.019789 0.000047 0.999804
vn -0.121656 0.000024 0.992572
vn -0.121614 0.000025 0.992577
vn -0.011405 -0.000019 -0.999935
vn -0.038919 -0.000031 -0.999242
vn -0.038915 -0.000031 -0.999243
vn -0.011423 -0.000019 -0.999935
vn -0.072288 -0.000007 -0.997384
vn -0.072270 -0.000007 -0.997385
vn -0.000000 1.000000 -0.000000
vn -0.000000 1.000000 -0.000000
vn -0.000000 1.000000 -0.000000
vn -0.000000 1.000000 -0.000000
vn 0.000000 1.000000 -0.000000
vn 0.000000 1.000000 -0.000000
vn 0.124798 -0.000023 -0.992182
vn 0.124753 -0.000023 -0.992188
vn 0.068617 0.000000 0.997643
vn 0.068617 0.000000 0.997643
vn 0.000000 1.000000 -0.000000
vn 0.000000 1.000000 -0.000000
vn 0.000000 1.000000 -0.000000
vn 0.000000 1.000000 -0.000000
vn 0.000000 1.000000 -0.000000
vn 0.000000 1.000000 -0.000000
vn 0.010812 0.000000 0.999942
vn 0.010812 0.000000 0.999942
vn 0.000002 0.000000 1.000000
vn 0.000002 0.000000 1.000000
vn -0.000001 -0.000001 -1.000000
vn -0.000001 -0.000001 -1.000000
vn 0.000000 1.000000 -0.000000
vn 0.000000 1.000000 -0.000000
vn 0.000000 1.000000 -0.000000
vn 0.000000 1.000000 -0.000000
vn 0.000000 1.000000 -0.000000
vn 0.000000 1.000000 -0.000000
vn -0.000000 0.000000 1.000000
vn -0.000000 0.000000 1.000000
vn 0.020268 -0.000048 -0.999795
vn 0.020216 -0.000047 -0.999796
vn 0.000001 0.000002 -1.000000
vn 0.000001 0.000002 -1.000000
vn -0.000000 1.000000 -0.000000
vn -0.000000 1.000000 -0.000000
vn -0.000000 1.000000 -0.000000
vn 0.067575 -0.000081 -0.997714
vn 0.067575 -0.000081 -0.997714
vn 0.000000 1.000000 -0.000000
vn 0.000000 1.000000 -0.000000
vn 0.036883 0.000000 0.999320
vn 0.036883 0.000000 0.999320
vn 0.000000 1.000000 -0.000000
vn 1.000000 -0.000000 -0.000004
vn 1.000000 -0.000000 -0.000004
vn 1.000000 -0.000000 -0.000004
vn 1.000000 -0.000000 -0.000004
vn 1.000000 0.000000 0.000004
vn 1.000000 0.000000 0.000004
vn 1.000000 0.000000 0.000004
vn 1.000000 0.000000 0.000004
vn -0.999999 0.000005 -0.001574
vn -0.999999 0.000005 -0.001574
vn -0.999999 0.000005 -0.001574
vn -0.999999 0.000005 -0.001574
vn -1.000000 0.000067 0.000396
vn -1.000000 0.000067 0.000396
vn -1.000000 0.000067 0.000396
vn -1.000000 0.000067 0.000396
s 1
g CurvedPath2_Low
usemtl initialShadingGroup
f 8/1/1 7/2/2 10/3/3 9/4/4
f 7/2/2 6/5/5 11/6/6 10/3/3
f 6/5/5 5/16/7 12/17/8 11/6/6
s 2
f 3/7/9 4/8/10 16/9/11 15/10/12
f 1/11/13 2/12/14 14/13/15 13/14/16
f 2/12/14 3/7/9 15/10/12 14/13/15
s 1
f 4/27/17 3/28/18 7/2/2 8/1/1
f 3/28/18 2/29/19 6/5/5 7/2/2
f 2/29/19 1/30/20 5/16/7 6/5/5
s 3
f 11/15/21 12/18/22 20/19/23 19/20/24
f 9/21/25 10/22/26 18/23/27 17/24/28
f 10/22/26 11/15/21 19/20/24 18/23/27
s 2
f 36/25/29 35/26/30 50/35/31 49/36/32
f 35/26/30 34/37/33 51/38/34 50/35/31
s 3
f 48/39/35 47/40/36 59/41/37 58/42/38
f 47/40/36 46/49/39 60/50/40 59/41/37
s 1
f 5/16/7 1/30/20 34/31/41 31/32/42
f 37/33/43 12/17/8 5/16/7 31/32/42
f 9/4/4 46/34/44 40/43/45 8/1/1
f 43/44/46 4/27/17 8/1/1 40/43/45
s 2
f 34/37/33 1/11/13 13/14/16 51/38/34
s 3
f 12/18/22 37/51/47 52/52/48 20/19/23
f 46/49/39 9/21/25 17/24/28 60/50/40
s 2
f 4/8/10 43/53/49 55/54/50 16/9/11
s 1
f 45/45/51 42/46/52 22/47/53 21/48/54
f 42/46/52 48/55/55 23/56/56 22/47/53
s 2
f 57/61/57 45/62/58 21/63/59 24/64/60
s 3
f 48/39/35 58/42/38 25/65/61 23/66/62
s 1
f 33/57/63 36/58/64 26/59/65 27/60/66
f 39/67/67 33/57/63 27/60/66 28/68/68
s 2
f 36/25/29 49/36/32 29/70/69 26/71/70
s 3
f 54/73/71 39/74/72 28/79/73 30/80/74
s 1
f 31/32/42 32/69/75 38/72/76 37/33/43
f 32/69/75 33/57/63 39/67/67 38/72/76
f 33/57/63 32/69/75 35/75/77 36/58/64
f 32/69/75 31/32/42 34/31/41 35/75/77
s 3
f 37/51/47 38/81/78 53/82/79 52/52/48
f 38/81/78 39/74/72 54/73/71 53/82/79
s 1
f 40/43/45 41/76/80 44/77/81 43/44/46
f 41/76/80 42/46/52 45/45/51 44/77/81
s 2
f 43/53/49 44/83/82 56/84/83 55/54/50
f 44/83/82 45/62/58 57/61/57 56/84/83
s 1
f 42/46/52 41/76/80 47/78/84 48/55/55
f 41/76/80 40/43/45 46/34/44 47/78/84
s off
f 27/60/85 26/59/86 29/85/87 61/86/88
f 28/68/89 27/60/90 61/86/91 30/87/92
f 21/48/93 22/47/94 62/88/95 24/89/96
f 22/47/97 23/56/98 25/90/99 62/88/100
