# This file uses centimeters as units for non-parametric coordinates.

mtllib GoalPost1_Low.mtl
g default
v 0.767516 5.647206 -0.557633
v 0.293165 5.647206 -0.902269
v -0.293165 5.647206 -0.902269
v -0.767516 5.647206 -0.557633
v -0.948702 5.647206 0.000000
v -0.767516 5.647206 0.557633
v -0.293165 5.647206 0.902269
v 0.293165 5.647206 0.902269
v 0.767516 5.647206 0.557633
v 0.948702 5.647206 0.000000
v 0.000000 31.314753 0.000000
v 0.767516 30.863661 -0.557633
v 0.716107 31.089197 -0.520283
v 0.575656 31.254318 -0.418239
v 0.383797 31.314753 -0.278845
v 0.293165 30.863661 -0.902269
v 0.273529 31.089197 -0.841835
v 0.219881 31.254318 -0.676725
v 0.146597 31.314753 -0.451180
v -0.293165 30.863661 -0.902269
v -0.273529 31.089197 -0.841835
v -0.219881 31.254318 -0.676725
v -0.146597 31.314753 -0.451180
v -0.767516 30.863661 -0.557633
v -0.716108 31.089197 -0.520283
v -0.575657 31.254318 -0.418239
v -0.383797 31.314753 -0.278844
v -0.948702 30.863661 0.000000
v -0.885158 31.089197 0.000000
v -0.711550 31.254318 0.000000
v -0.474399 31.314753 0.000000
v -0.767516 30.863661 0.557633
v -0.716107 31.089197 0.520283
v -0.575656 31.254318 0.418239
v -0.383797 31.314753 0.278844
v -0.293165 30.863661 0.902269
v -0.273529 31.089197 0.841835
v -0.219881 31.254318 0.676725
v -0.146597 31.314753 0.451180
v 0.293165 30.863661 0.902269
v 0.273529 31.089197 0.841835
v 0.219881 31.254318 0.676724
v 0.146597 31.314753 0.451180
v 0.767516 30.863661 0.557633
v 0.716107 31.089197 0.520283
v 0.575656 31.254318 0.418239
v 0.383797 31.314753 0.278844
v 0.948702 30.863661 0.000000
v 0.885157 31.089197 -0.000000
v 0.711550 31.254318 -0.000000
v 0.474398 31.314753 -0.000000
v 0.829150 -0.095156 -0.602413
v 0.316707 -0.095156 -0.974724
v 0.334532 5.693381 -1.029584
v 0.875816 5.693381 -0.636318
v -0.316707 -0.095156 -0.974724
v -0.334532 5.693381 -1.029584
v -0.829150 -0.095156 -0.602412
v -0.875816 5.693381 -0.636317
v -1.024886 -0.095156 0.000000
v -1.082568 5.693381 0.000000
v -0.829150 -0.095156 0.602413
v -0.875816 5.693381 0.636317
v -0.316707 -0.095156 0.974724
v -0.334532 5.693381 1.029584
v 0.316707 -0.095156 0.974724
v 0.334532 5.693381 1.029584
v 0.829150 -0.095156 0.602412
v 0.875816 5.693381 0.636317
v 1.024886 -0.095156 0.000000
v 1.082568 5.693381 0.000000
vt 0.587596 0.010436
vt 0.587596 0.232215
vt 0.340882 0.010436
vt 0.340882 0.232215
vt 0.371722 0.010436
vt 0.371722 0.232215
vt 0.402561 0.010436
vt 0.402561 0.232215
vt 0.433400 0.010436
vt 0.433400 0.232215
vt 0.464239 0.010436
vt 0.464239 0.232215
vt 0.495079 0.010436
vt 0.495079 0.232215
vt 0.525918 0.010436
vt 0.525918 0.232215
vt 0.556757 0.010436
vt 0.556757 0.232215
vt 0.587596 0.230446
vt 0.274467 0.978188
vt 0.027753 0.012058
vt 0.027753 0.978188
vt 0.371722 0.230446
vt 0.058592 0.978188
vt 0.402561 0.230446
vt 0.089431 0.978188
vt 0.433400 0.230446
vt 0.120271 0.978188
vt 0.464239 0.230446
vt 0.151110 0.978188
vt 0.495079 0.230446
vt 0.181949 0.978188
vt 0.525918 0.230446
vt 0.212788 0.978188
vt 0.556757 0.230446
vt 0.243628 0.978188
vt 0.726570 0.057934
vt 0.718113 0.071052
vt 0.702152 0.051475
vt 0.703528 0.076698
vt 0.688443 0.072689
vt 0.678593 0.060582
vt 0.677739 0.044998
vt 0.686205 0.031887
vt 0.700760 0.026255
vt 0.715847 0.030251
vt 0.725705 0.042350
vt 0.738777 0.061162
vt 0.737478 0.037789
vt 0.274467 0.986829
vt 0.746110 0.034446
vt 0.704213 0.089308
vt 0.027753 0.986829
vt 0.681588 0.083293
vt 0.058592 0.986829
vt 0.666816 0.065134
vt 0.089431 0.986829
vt 0.665534 0.041760
vt 0.120271 0.986829
vt 0.678233 0.022095
vt 0.151110 0.986829
vt 0.700064 0.013647
vt 0.181949 0.986829
vt 0.722693 0.019642
vt 0.212788 0.986829
vt 0.618436 0.010436
vt 0.649275 0.010436
vt 0.649275 0.230446
vt 0.305306 0.978188
vt 0.703561 0.076697
vt 0.726093 0.080836
vt 0.704269 0.089306
vt 0.305306 0.986829
vt 0.336145 0.986829
vt 0.336145 0.978188
vt 0.618436 0.230446
vt 0.618436 0.232215
vt 0.649275 0.232215
vt 0.727712 0.011864
vt 0.243628 0.986829
vt 0.699555 0.004405
vt 0.672390 0.014916
vt 0.656587 0.039385
vt 0.658181 0.068470
vt 0.676562 0.091066
vt 0.704792 0.098547
vt 0.704710 0.098551
vt 0.731944 0.088009
vt 0.747726 0.063529
vt 0.243628 0.012058
vt 0.274467 0.012058
vt 0.212788 0.012058
vt 0.181949 0.012058
vt 0.151110 0.012058
vt 0.120271 0.012058
vt 0.089431 0.012058
vt 0.058592 0.012058
vt 0.336145 0.012058
vt 0.340882 0.230446
vt 0.305306 0.012058
vn 0.587759 -0.009477 -0.808981
vn 0.587759 -0.009477 -0.808981
vn 0.587759 -0.009477 -0.808981
vn 0.587759 -0.009477 -0.808981
vn 0.000000 -0.009477 -0.999955
vn 0.000000 -0.009477 -0.999955
vn 0.000000 -0.009477 -0.999955
vn 0.000000 -0.009477 -0.999955
vn -0.587759 -0.009477 -0.808980
vn -0.587759 -0.009477 -0.808980
vn -0.587759 -0.009477 -0.808980
vn -0.587759 -0.009477 -0.808980
vn -0.951014 -0.009477 -0.309003
vn -0.951014 -0.009477 -0.309003
vn -0.951014 -0.009477 -0.309003
vn -0.951014 -0.009477 -0.309003
vn -0.951014 -0.009477 0.309003
vn -0.951014 -0.009477 0.309003
vn -0.951014 -0.009477 0.309003
vn -0.951014 -0.009477 0.309003
vn -0.587759 -0.009477 0.808981
vn -0.587759 -0.009477 0.808981
vn -0.587759 -0.009477 0.808981
vn -0.587759 -0.009477 0.808981
vn 0.000000 -0.009477 0.999955
vn 0.000000 -0.009477 0.999955
vn 0.000000 -0.009477 0.999955
vn 0.000000 -0.009477 0.999955
vn 0.587759 -0.009477 0.808980
vn 0.587759 -0.009477 0.808980
vn 0.587759 -0.009477 0.808980
vn 0.587759 -0.009477 0.808980
vn 0.951014 -0.009477 0.309003
vn 0.951014 -0.009477 0.309003
vn 0.951014 -0.009477 0.309003
vn 0.951014 -0.009477 0.309003
vn 0.951014 -0.009477 -0.309003
vn 0.951014 -0.009477 -0.309003
vn 0.951014 -0.009477 -0.309003
vn 0.951014 -0.009477 -0.309003
vn 0.587785 0.000000 -0.809017
vn 0.587785 0.000000 -0.809017
vn 0.587784 0.002175 -0.809015
vn 0.587784 0.002175 -0.809015
vn 0.000000 0.000000 -1.000000
vn 0.000000 0.000000 -1.000000
vn -0.000000 0.002175 -0.999998
vn -0.000000 0.002175 -0.999998
vn -0.587785 0.000000 -0.809017
vn -0.587785 0.000000 -0.809017
vn -0.587784 0.002175 -0.809015
vn -0.587784 0.002175 -0.809015
vn -0.951057 0.000000 -0.309017
vn -0.951057 0.000000 -0.309017
vn -0.951054 0.002175 -0.309016
vn -0.951054 0.002175 -0.309016
vn -0.951057 0.000000 0.309017
vn -0.951057 0.000000 0.309017
vn -0.951054 0.002175 0.309016
vn -0.951054 0.002175 0.309016
vn -0.587785 0.000000 0.809017
vn -0.587785 0.000000 0.809017
vn -0.587784 0.002175 0.809015
vn -0.587784 0.002175 0.809015
vn 0.000000 0.000000 1.000000
vn 0.000000 0.000000 1.000000
vn 0.000000 0.002175 0.999998
vn 0.000000 0.002175 0.999998
vn 0.587786 0.000000 0.809017
vn 0.587786 0.000000 0.809017
vn 0.587784 0.002175 0.809015
vn 0.587784 0.002175 0.809015
vn 0.951057 0.000000 0.309017
vn 0.951057 0.000000 0.309017
vn 0.951054 0.002175 0.309016
vn 0.951054 0.002175 0.309016
vn 0.951057 0.000000 -0.309017
vn 0.951057 0.000000 -0.309017
vn 0.951054 0.002175 -0.309016
vn 0.951054 0.002175 -0.309016
vn 0.132385 0.986521 -0.096183
vn 0.050567 0.986521 -0.155627
vn 0.000000 1.000000 -0.000000
vn -0.050567 0.986520 -0.155631
vn -0.132385 0.986521 -0.096183
vn -0.163637 0.986521 0.000000
vn -0.132385 0.986521 0.096183
vn -0.050567 0.986521 0.155626
vn 0.050567 0.986521 0.155624
vn 0.132385 0.986521 0.096184
vn 0.163637 0.986521 -0.000000
vn 0.199780 0.969031 -0.145144
vn 0.246942 0.969030 -0.000000
vn 0.710540 0.478154 -0.516238
vn 0.878276 0.478155 0.000001
vn 0.557555 0.724594 -0.405089
vn 0.689176 0.724594 0.000002
vn 0.076309 0.969031 -0.234852
vn 0.271402 0.478155 -0.835290
vn 0.212965 0.724589 -0.655452
vn -0.076309 0.969029 -0.234860
vn -0.271402 0.478156 -0.835289
vn -0.212966 0.724591 -0.655449
vn -0.199780 0.969030 -0.145151
vn -0.710541 0.478155 -0.516236
vn -0.557555 0.724595 -0.405085
vn -0.246942 0.969030 0.000000
vn -0.878276 0.478155 -0.000000
vn -0.689175 0.724595 0.000000
vn -0.199780 0.969030 0.145148
vn -0.710540 0.478155 0.516237
vn -0.557555 0.724595 0.405085
vn -0.076309 0.969031 0.234852
vn -0.271401 0.478155 0.835290
vn -0.212968 0.724597 0.655442
vn 0.076309 0.969032 0.234850
vn 0.271403 0.478155 0.835289
vn 0.212968 0.724597 0.655442
vn 0.199780 0.969031 0.145147
vn 0.710540 0.478155 0.516237
vn 0.557555 0.724594 0.405087
vn -0.200409 0.940079 0.275840
vn -0.200409 0.940079 0.275840
vn -0.200409 0.940079 0.275840
vn -0.200409 0.940079 0.275840
vn 0.000000 0.940079 0.340958
vn 0.000000 0.940079 0.340958
vn 0.000000 0.940079 0.340958
vn 0.000000 0.940079 0.340958
vn 0.200409 0.940079 0.275838
vn 0.200409 0.940080 0.275838
vn 0.200409 0.940079 0.275838
vn 0.200409 0.940079 0.275838
vn 0.324269 0.940079 0.105361
vn 0.324269 0.940079 0.105361
vn 0.324269 0.940079 0.105361
vn 0.324269 0.940079 0.105361
vn 0.324269 0.940079 -0.105361
vn 0.324269 0.940079 -0.105361
vn 0.324269 0.940079 -0.105361
vn 0.324269 0.940079 -0.105361
vn 0.200409 0.940080 -0.275838
vn 0.200409 0.940080 -0.275838
vn 0.200409 0.940080 -0.275838
vn 0.200409 0.940080 -0.275838
vn 0.000000 0.940080 -0.340955
vn 0.000000 0.940080 -0.340955
vn 0.000000 0.940080 -0.340955
vn 0.000000 0.940080 -0.340955
vn -0.200409 0.940080 -0.275838
vn -0.200409 0.940079 -0.275838
vn -0.200409 0.940080 -0.275838
vn -0.200409 0.940080 -0.275838
vn -0.324269 0.940079 -0.105361
vn -0.324269 0.940079 -0.105361
vn -0.324269 0.940079 -0.105361
vn -0.324269 0.940079 -0.105361
vn -0.324269 0.940079 0.105361
vn -0.324269 0.940079 0.105361
vn -0.324269 0.940079 0.105361
vn -0.324269 0.940079 0.105361
s off
g GoalPost1_Low
usemtl initialShadingGroup
f 52/1/1 53/66/2 54/77/3 55/2/4
f 53/66/5 56/67/6 57/78/7 54/77/8
f 56/3/9 58/5/10 59/6/11 57/4/12
f 58/5/13 60/7/14 61/8/15 59/6/16
f 60/7/17 62/9/18 63/10/19 61/8/20
f 62/9/21 64/11/22 65/12/23 63/10/24
f 64/11/25 66/13/26 67/14/27 65/12/28
f 66/13/29 68/15/30 69/16/31 67/14/32
f 68/15/33 70/17/34 71/18/35 69/16/36
f 70/17/37 52/1/38 55/2/39 71/18/40
s 1
f 1/91/41 2/100/42 16/69/43 12/20/44
f 2/100/45 3/98/46 20/75/47 16/69/48
f 3/21/49 4/97/50 24/24/51 20/22/52
f 4/97/53 5/96/54 28/26/55 24/24/56
f 5/96/57 6/95/58 32/28/59 28/26/60
f 6/95/61 7/94/62 36/30/63 32/28/64
f 7/94/65 8/93/66 40/32/67 36/30/68
f 8/93/69 9/92/70 44/34/71 40/32/72
f 9/92/73 10/90/74 48/36/75 44/34/76
f 10/90/77 1/91/78 12/20/79 48/36/80
s 11
f 15/37/81 19/38/82 11/39/83
f 19/38/82 23/70/84 11/39/83
f 23/40/84 27/41/85 11/39/83
f 27/41/85 31/42/86 11/39/83
f 31/42/86 35/43/87 11/39/83
f 35/43/87 39/44/88 11/39/83
f 39/44/88 43/45/89 11/39/83
f 43/45/89 47/46/90 11/39/83
f 47/46/90 51/47/91 11/39/83
f 51/47/91 15/37/81 11/39/83
f 14/48/92 15/37/81 51/47/91 50/49/93
s 1
f 12/20/79 13/50/94 49/80/95 48/36/80
f 13/89/94 14/48/96 50/49/97 49/51/95
s 11
f 15/37/81 14/48/92 18/71/98 19/38/82
s 1
f 14/48/96 13/89/94 17/88/99 18/71/100
f 13/50/94 12/20/44 16/69/43 17/73/99
s 11
f 19/38/82 18/71/98 22/72/101 23/70/84
s 1
f 18/71/100 17/88/99 21/86/102 22/72/103
f 17/73/99 16/69/48 20/75/47 21/74/102
s 11
f 23/40/84 22/52/101 26/54/104 27/41/85
s 1
f 22/52/103 21/87/102 25/85/105 26/54/106
f 21/53/102 20/22/52 24/24/51 25/55/105
s 11
f 27/41/85 26/54/104 30/56/107 31/42/86
s 1
f 26/54/106 25/85/105 29/84/108 30/56/109
f 25/55/105 24/24/56 28/26/55 29/57/108
s 11
f 31/42/86 30/56/107 34/58/110 35/43/87
s 1
f 30/56/109 29/84/108 33/83/111 34/58/112
f 29/57/108 28/26/60 32/28/59 33/59/111
s 11
f 35/43/87 34/58/110 38/60/113 39/44/88
s 1
f 34/58/112 33/83/111 37/82/114 38/60/115
f 33/59/111 32/28/64 36/30/63 37/61/114
s 11
f 39/44/88 38/60/113 42/62/116 43/45/89
s 1
f 38/60/115 37/82/114 41/81/117 42/62/118
f 37/61/114 36/30/68 40/32/67 41/63/117
s 11
f 43/45/89 42/62/116 46/64/119 47/46/90
s 1
f 42/62/118 41/81/117 45/79/120 46/64/121
f 41/63/117 40/32/72 44/34/71 45/65/120
s 11
f 47/46/90 46/64/119 50/49/93 51/47/91
s 1
f 46/64/121 45/79/120 49/51/95 50/49/97
f 45/65/120 44/34/76 48/36/75 49/80/95
s off
f 2/76/122 1/19/123 55/2/124 54/77/125
f 3/68/126 2/76/127 54/77/128 57/78/129
f 4/23/130 3/99/131 57/4/132 59/6/133
f 5/25/134 4/23/135 59/6/136 61/8/137
f 6/27/138 5/25/139 61/8/140 63/10/141
f 7/29/142 6/27/143 63/10/144 65/12/145
f 8/31/146 7/29/147 65/12/148 67/14/149
f 9/33/150 8/31/151 67/14/152 69/16/153
f 10/35/154 9/33/155 69/16/156 71/18/157
f 1/19/158 10/35/159 71/18/160 55/2/161
